<svg xmlns="http://www.w3.org/2000/svg" version="1.1" xmlns:xlink="http://www.w3.org/1999/xlink" xmlns:svgjs="http://svgjs.dev/svgjs" width="2000" height="454" viewBox="0 0 2000 454"><g transform="matrix(1,0,0,1,-1.2121212121212466,-0.06833231215642854)"><svg viewBox="0 0 396 90" data-background-color="#ffffff" preserveAspectRatio="xMidYMid meet" height="454" width="2000" xmlns="http://www.w3.org/2000/svg" xmlns:xlink="http://www.w3.org/1999/xlink"><g id="tight-bounds" transform="matrix(1,0,0,1,0.2400000000000091,0.013546053070655262)"><svg viewBox="0 0 395.52 89.97290789385868" height="89.97290789385868" width="395.52"><g><svg viewBox="0 0 395.52 89.97290789385868" height="89.97290789385868" width="395.52"><g transform="matrix(1,0,0,1,0,57.492839371374735)"><svg viewBox="0 0 395.52 32.48006852248394" height="32.48006852248394" width="395.52"><g id="textblocktransform"><svg viewBox="0 0 395.52 32.48006852248394" height="32.48006852248394" width="395.52" id="textblock"><g><svg viewBox="0 0 395.52 32.48006852248394" height="32.48006852248394" width="395.52"><g transform="matrix(1,0,0,1,0,0)"><svg width="395.52" viewBox="3.66 -34.06 456.03 37.45" height="32.48006852248394" data-palette-color="#2257bf"><path d="M3.66 0L3.66-3.91 10.28-3.91 10.28-26.49 3.66-26.49 3.66-30.4 21.92-30.4Q25.17-30.4 27.64-30.24 30.1-30.08 32.1-29.54L32.1-29.54Q37.35-28.1 39.97-24.58 42.58-21.07 42.58-15.21L42.58-15.21Q42.58-12.52 41.96-10.24 41.33-7.96 40.05-6.14 38.77-4.32 36.83-3.03 34.89-1.73 32.25-1.03L32.25-1.03Q30.27-0.49 27.77-0.24 25.27 0 22.17 0L22.17 0 3.66 0ZM5.22 1.71L21.39 1.71Q23.1 1.71 24.76 1.62 26.42 1.54 27.91 1.39 29.39 1.25 30.65 1.04 31.91 0.83 32.84 0.59L32.84 0.59Q35.47-0.1 37.61-1.5 39.75-2.91 41.24-4.92 42.72-6.93 43.53-9.53 44.34-12.13 44.34-15.21L44.34-15.21Q44.34-17.48 43.92-19.32 43.51-21.17 42.7-22.69 41.89-24.22 40.71-25.49 39.53-26.76 37.99-27.88L37.99-27.88Q39.77-26.98 41.14-25.78 42.5-24.58 43.43-23.02 44.36-21.46 44.85-19.52 45.34-17.58 45.34-15.21L45.34-15.21Q45.34-12.06 44.52-9.34 43.7-6.62 42.14-4.46 40.58-2.29 38.28-0.78 35.99 0.73 33.03 1.49L33.03 1.49Q30.96 2 28.08 2.32 25.2 2.64 21.39 2.64L21.39 2.64 5.22 2.64 5.22 1.71ZM15.77-3.91L23.34-3.91Q26.95-3.91 29.44-4.54 31.93-5.18 33.47-6.49 35.01-7.81 35.69-9.86 36.38-11.91 36.38-14.77L36.38-14.77 36.38-15.67Q36.38-18.46 35.68-20.48 34.99-22.51 33.42-23.85 31.86-25.2 29.33-25.84 26.81-26.49 23.12-26.49L23.12-26.49 15.77-26.49 15.77-3.91ZM17.48-5.37L17.48-24.78 22.66-24.78Q25.1-24.78 26.78-24.6 28.47-24.41 29.65-24.04 30.83-23.66 31.7-23.05 32.57-22.44 33.4-21.58L33.4-21.58Q32.5-22.14 31.51-22.57 30.52-23 29.27-23.28 28.03-23.56 26.42-23.71 24.8-23.85 22.66-23.85L22.66-23.85 18.46-23.85 18.46-5.37 17.48-5.37ZM5.13-23.85L5.13-24.78 9.25-24.78 9.25-23.85 5.13-23.85ZM50.78-11.33L50.78-11.33Q50.78-13.92 51.73-16.26 52.68-18.6 54.59-20.39 56.49-22.17 59.32-23.23 62.16-24.29 65.89-24.29L65.89-24.29Q69.41-24.29 72.17-23.35 74.92-22.41 76.85-20.63 78.78-18.85 79.79-16.27 80.81-13.7 80.81-10.4L80.81-10.4 56.13-10.4Q56.35-8.64 57.26-7.28 58.18-5.91 59.59-4.97 61.01-4.03 62.8-3.54 64.6-3.05 66.55-3.05L66.55-3.05Q68.14-3.05 69.79-3.31 71.43-3.56 72.9-4 74.36-4.44 75.51-4.99 76.66-5.54 77.27-6.13L77.27-6.13 78.2-6.13 80.49-3.64Q77.98-1.49 74.37-0.38 70.77 0.73 66.43 0.73L66.43 0.73Q62.64 0.73 59.73-0.2 56.81-1.12 54.82-2.76 52.83-4.39 51.8-6.59 50.78-8.79 50.78-11.33ZM58.47-8.69L82.47-8.69Q82.52-9.06 82.54-9.48 82.57-9.91 82.57-10.4L82.57-10.4Q82.57-12.48 82.14-14.37 81.71-16.26 80.89-17.88 80.08-19.51 78.88-20.85 77.68-22.19 76.17-23.14L76.17-23.14Q77.78-22.51 79.14-21.4 80.49-20.29 81.47-18.7 82.44-17.11 82.99-15.04 83.54-12.96 83.54-10.4L83.54-10.4Q83.54-10.21 83.53-9.91 83.52-9.62 83.49-9.25 83.47-8.89 83.43-8.51 83.4-8.13 83.35-7.76L83.35-7.76 60.28-7.76Q60.74-6.98 61.98-6.16 63.23-5.35 65.21-4.79L65.21-4.79Q63.99-4.79 62.92-5.08 61.86-5.37 61-5.88 60.13-6.4 59.48-7.12 58.84-7.84 58.47-8.69L58.47-8.69ZM56.27-13.45L75.17-13.45Q74.78-15.14 73.96-16.46 73.14-17.77 71.95-18.66 70.75-19.56 69.21-20.03 67.67-20.51 65.84-20.51L65.84-20.51Q63.86-20.51 62.24-19.98 60.62-19.46 59.4-18.52 58.18-17.58 57.38-16.28 56.59-14.99 56.27-13.45L56.27-13.45ZM59.62-14.5L58.49-14.5Q59.4-16.5 61.34-17.65 63.28-18.8 65.84-18.8L65.84-18.8Q66.89-18.8 67.88-18.63 68.87-18.46 69.71-18.1 70.55-17.75 71.19-17.24 71.82-16.72 72.19-16.06L72.19-16.06Q70.8-16.99 69.21-17.43 67.62-17.87 65.79-17.87L65.79-17.87Q63.67-17.87 62.06-16.99 60.45-16.11 59.62-14.5L59.62-14.5ZM53.73-1.07L53.73-1.07Q56.1 0.61 59.24 1.54 62.38 2.47 66.43 2.47L66.43 2.47Q70.38 2.47 73.84 1.56 77.29 0.66 80.08-1.2L80.08-1.2 80.73-0.49Q77.59 1.64 74.11 2.51 70.63 3.39 66.82 3.39L66.82 3.39Q61.86 3.39 58.6 2.2 55.34 1 53.73-1.07ZM104.34 0L92.35-19.9 87.08-19.9 87.08-23.56 103.83-23.56 103.83-19.9 98.58-19.9 107.88-4 116.84-19.9 111.25-19.9 111.25-23.56 127.51-23.56 127.51-19.9 122.48-19.9 110.69 0 104.34 0ZM106.05 1.71L111.86 1.71 123.65-18.19 129.27-18.19 129.27-22.19 130.24-22.19 130.24-17.26 124.29-17.26 112.5 2.64 106.42 2.64 106.05 1.71ZM108.25-6.98L101.9-18.19 106.05-18.19 105.59-22.19 106.56-22.19 106.56-17.26 103.61-17.26 108.81-7.91 108.25-6.98ZM112.45-17.26L112.45-18.19 114.64-18.19 114.08-17.26 112.45-17.26ZM88.54-17.26L88.54-18.19 92.08-18.19 92.65-17.26 88.54-17.26ZM134.59 0L134.59-6.71 139.62-6.71Q140.28-5.71 141.5-4.96 142.72-4.2 144.29-3.71 145.87-3.22 147.75-2.98 149.63-2.73 151.6-2.73L151.6-2.73Q153.24-2.73 154.39-2.98 155.53-3.22 156.24-3.66 156.95-4.1 157.27-4.69 157.59-5.27 157.59-5.98L157.59-5.98Q157.59-7.47 155.2-8.53 152.82-9.59 147.67-10.16L147.67-10.16Q144.26-10.52 141.96-11.17 139.67-11.82 138.26-12.74 136.86-13.67 136.26-14.87 135.66-16.06 135.66-17.5L135.66-17.5Q135.66-18.75 136.44-19.97 137.22-21.19 138.82-22.16 140.42-23.12 142.83-23.71 145.23-24.29 148.48-24.29L148.48-24.29Q149.53-24.29 150.63-24.15 151.73-24 152.78-23.72 153.83-23.44 154.78-23.05 155.73-22.66 156.49-22.17L156.49-22.17 156.49-23.54 161.74-23.54 161.74-16.94 156.49-16.94Q156.22-17.7 155.36-18.38 154.51-19.07 153.34-19.58 152.17-20.09 150.85-20.4 149.53-20.7 148.36-20.7L148.36-20.7Q146.82-20.7 145.45-20.48 144.08-20.26 143.08-19.86 142.08-19.46 141.5-18.9 140.91-18.33 140.91-17.65L140.91-17.65Q140.91-17.02 141.36-16.5 141.81-15.99 142.88-15.55 143.94-15.11 145.71-14.73 147.48-14.36 150.11-14.04L150.11-14.04Q153.63-13.6 156.05-12.92 158.46-12.23 159.98-11.24 161.49-10.25 162.16-8.94 162.83-7.62 162.83-5.91L162.83-5.91Q162.83-4.66 162.08-3.48 161.32-2.29 159.87-1.35 158.42-0.42 156.3 0.16 154.19 0.73 151.46 0.73L151.46 0.73Q149.7 0.73 148.16 0.6 146.62 0.46 145.21 0.15 143.79-0.17 142.47-0.66 141.15-1.15 139.84-1.86L139.84-1.86 139.84 0 134.59 0ZM157.68-14.31L157.68-15.23 163.49-15.23 163.49-22.51 164.47-22.51 164.47-14.31 157.68-14.31ZM142.69-17.65L142.69-17.65Q142.77-17.97 143.28-18.24 143.79-18.51 144.58-18.71 145.38-18.92 146.34-19.04 147.31-19.17 148.28-19.17L148.28-19.17Q149.11-19.17 150-19.04 150.9-18.92 151.69-18.7 152.48-18.48 153.13-18.15 153.78-17.82 154.14-17.41L154.14-17.41Q153.58-17.65 152.8-17.81 152.02-17.97 151.2-18.07 150.38-18.16 149.6-18.21 148.82-18.26 148.28-18.26L148.28-18.26Q146.31-18.26 144.85-18.07 143.4-17.87 142.69-17.65ZM136-12.82L136-12.82Q136.69-11.94 137.64-11.25 138.59-10.57 139.93-10.03 141.28-9.5 143.06-9.12 144.84-8.74 147.16-8.47L147.16-8.47Q149.28-8.23 150.85-7.95 152.41-7.67 153.46-7.32 154.51-6.98 155.1-6.56 155.68-6.13 155.85-5.59L155.85-5.59Q155.34-5.93 154.68-6.19 154.02-6.45 153-6.67 151.97-6.88 150.47-7.1 148.97-7.32 146.75-7.59L146.75-7.59Q142.16-8.13 139.49-9.34 136.83-10.55 136-12.82ZM135.78 1.71L141.59 1.71 141.59 0.68Q142.28 1 143.33 1.31 144.38 1.61 145.68 1.87 146.99 2.12 148.45 2.28 149.92 2.44 151.43 2.44L151.43 2.44Q154.46 2.44 156.9 1.77 159.34 1.1 161.05-0.04 162.76-1.17 163.68-2.67 164.59-4.17 164.59-5.83L164.59-5.83Q164.59-6.49 164.52-7.06 164.45-7.62 164.26-8.13 164.08-8.64 163.77-9.16 163.47-9.67 163.01-10.23L163.01-10.23Q165.57-8.72 165.57-5.83L165.57-5.83Q165.57-3.88 164.57-2.2 163.57-0.51 161.72 0.72 159.88 1.95 157.27 2.66 154.66 3.37 151.41 3.37L151.41 3.37Q150.21 3.37 148.99 3.26 147.77 3.15 146.62 2.95 145.48 2.76 144.45 2.49 143.43 2.22 142.62 1.88L142.62 1.88 142.62 2.69 135.78 2.69 135.78 1.71ZM172.23 0L172.23-3.91 178.82-3.91 178.82-26.49 172.23-26.49 172.23-30.4 190.91-30.4 190.91-26.49 184.37-26.49 184.37-13.4 204.6-26.49 197.84-26.49 197.84-30.4 215.66-30.4 215.66-26.49 210.2-26.49 195.45-16.89 209.83-3.91 216.4-3.91 216.4 0 198.09 0 198.09-3.91 202.36-3.91 191.13-14.09 184.37-9.67 184.37-3.91 190.91-3.91 190.91 0 172.23 0ZM198.26-16.65L210.76-24.78 217.42-24.78 217.42-29.15 218.4-29.15 218.4-23.85 211.07-23.85 199.92-16.58 212.2-5.37 210.76-5.37 198.26-16.65ZM186.12-15.7L186.12-24.78 191.91-24.78 191.91-29.15 192.89-29.15 192.89-23.85 187.1-23.85 187.1-16.33 186.12-15.7ZM173.7-23.85L173.7-24.78 177.8-24.78 177.8-23.85 173.7-23.85ZM186.12-5.37L186.12-8.74 191.54-12.3 192.25-11.65 187.1-8.25 187.1-5.37 186.12-5.37ZM199.14 1.71L218.11 1.71 218.11-2.54 219.13-2.54 219.13 2.64 199.14 2.64 199.14 1.71ZM173.7 1.71L192.67 1.71 192.67-2.54 193.64-2.54 193.64 2.64 173.7 2.64 173.7 1.71ZM223.86-11.4L223.86-11.4Q223.86-14.06 225.01-16.42 226.16-18.77 228.22-20.52 230.29-22.27 233.17-23.28 236.05-24.29 239.49-24.29L239.49-24.29Q243.1-24.29 245.95-23.33 248.79-22.36 250.76-20.65 252.72-18.95 253.76-16.6 254.8-14.26 254.8-11.5L254.8-11.5Q254.8-8.84 253.66-6.59 252.53-4.35 250.44-2.72 248.35-1.1 245.43-0.18 242.52 0.73 238.93 0.73L238.93 0.73Q235.53 0.73 232.76-0.28 229.99-1.29 228.01-2.98 226.04-4.66 224.95-6.85 223.86-9.03 223.86-11.4ZM227.7-1.12L227.7-1.12Q230.07 0.59 232.93 1.51 235.8 2.44 239.42 2.44L239.42 2.44Q242.79 2.44 245.89 1.53 248.99 0.61 251.35-1.17 253.72-2.95 255.14-5.55 256.55-8.15 256.55-11.5L256.55-11.5Q256.55-13.13 256.1-14.81 255.65-16.48 254.83-18.02 254.02-19.56 252.84-20.89 251.67-22.22 250.23-23.14L250.23-23.14Q251.87-22.41 253.22-21.22 254.58-20.02 255.53-18.49 256.48-16.97 257.01-15.19 257.53-13.4 257.53-11.5L257.53-11.5Q257.53-9.11 256.85-7.07 256.16-5.03 254.96-3.38 253.75-1.73 252.07-0.46 250.4 0.81 248.4 1.65 246.4 2.49 244.14 2.93 241.88 3.37 239.54 3.37L239.54 3.37Q237.59 3.37 235.8 3.06 234.02 2.76 232.49 2.19 230.97 1.61 229.75 0.78 228.53-0.05 227.7-1.12ZM229.28-11.5L229.28-11.5Q229.28-9.62 230-8.07 230.72-6.52 232.04-5.41 233.36-4.3 235.2-3.69 237.05-3.08 239.29-3.08L239.29-3.08Q241.56-3.08 243.42-3.7 245.28-4.32 246.62-5.43 247.96-6.54 248.69-8.09 249.43-9.64 249.43-11.5L249.43-11.5Q249.43-13.33 248.69-14.95 247.96-16.58 246.64-17.81 245.32-19.04 243.48-19.76 241.64-20.48 239.42-20.48L239.42-20.48Q237.1-20.48 235.23-19.79 233.36-19.09 232.04-17.88 230.72-16.67 230-15.04 229.28-13.4 229.28-11.5ZM230.99-11.4L230.99-11.4Q230.99-12.94 231.6-14.29 232.21-15.65 233.32-16.64 234.44-17.63 235.99-18.2 237.54-18.77 239.42-18.77L239.42-18.77Q240.61-18.77 241.74-18.52 242.86-18.26 243.81-17.77 244.76-17.29 245.5-16.59 246.23-15.89 246.67-15.01L246.67-15.01Q245.06-16.48 243.31-17.16 241.56-17.85 239.37-17.85L239.37-17.85Q237.78-17.85 236.44-17.33 235.09-16.82 234.09-15.94 233.09-15.06 232.53-13.89 231.97-12.72 231.97-11.4L231.97-11.4Q231.97-10.3 232.24-9.35 232.51-8.4 233.15-7.58 233.8-6.76 234.88-6.1 235.95-5.44 237.56-4.93L237.56-4.93Q236.1-5.03 234.89-5.55 233.68-6.08 232.81-6.93 231.95-7.79 231.47-8.94 230.99-10.08 230.99-11.4ZM264.17 0L264.17-3.66 269.54-3.66 269.54-19.41 264.17-19.41 264.17-23.56 274.79-23.56 274.79-19.87Q275.55-20.8 276.61-21.61 277.67-22.41 278.99-23.01 280.31-23.61 281.85-23.95 283.38-24.29 285.07-24.29L285.07-24.29Q287.61-24.29 289.68-23.57 291.76-22.85 293.22-21.35 294.69-19.85 295.48-17.57 296.27-15.28 296.27-12.16L296.27-12.16 296.27-3.66 301.65-3.66 301.65 0 286.87 0 286.87-3.66 291.03-3.66 291.03-10.08Q291.03-12.06 290.84-13.61 290.66-15.16 290.32-16.04L290.32-16.04Q289.88-17.16 289.21-17.94 288.53-18.73 287.69-19.21 286.85-19.7 285.85-19.92 284.85-20.14 283.73-20.14L283.73-20.14Q282.53-20.14 281.25-19.7 279.97-19.26 278.76-18.47 277.55-17.68 276.51-16.6 275.47-15.53 274.79-14.28L274.79-14.28 274.79-3.66 278.94-3.66 278.94 0 264.17 0ZM298.03-5.13L298.03-11.99Q298.03-14.14 297.7-15.98 297.37-17.82 296.71-19.3 296.05-20.78 295.09-21.85 294.13-22.92 292.86-23.56L292.86-23.56Q294.52-23.14 295.69-22.16 296.86-21.17 297.59-19.65 298.32-18.14 298.67-16.16 299.01-14.18 299.01-11.82L299.01-11.82 299.01-5.13 298.03-5.13ZM276.55-5.13L276.55-13.67Q277.16-14.75 278-15.63 278.84-16.5 279.83-17.13 280.82-17.75 281.91-18.09 282.99-18.43 284.07-18.43L284.07-18.43Q285.75-18.43 286.8-17.8 287.85-17.16 288.34-16.19L288.34-16.19Q287.58-16.75 286.57-17.14 285.56-17.53 284.02-17.53L284.02-17.53Q283.07-17.53 282.09-17.18 281.11-16.82 280.23-16.24 279.36-15.65 278.65-14.89 277.94-14.14 277.52-13.35L277.52-13.35 277.52-5.13 276.55-5.13ZM265.63-16.77L265.63-17.7 268.52-17.7 268.52-16.77 265.63-16.77ZM288.34 1.71L303.4 1.71 303.4-2.29 304.38-2.29 304.38 2.64 288.34 2.64 288.34 1.71ZM265.63 1.71L280.7 1.71 280.7-2.29 281.67-2.29 281.67 2.64 265.63 2.64 265.63 1.71ZM309.14 0L309.14-3.66 314.51-3.66 314.51-19.41 309.14-19.41 309.14-23.56 319.76-23.56 319.76-19.87Q320.51-20.8 321.58-21.61 322.64-22.41 323.96-23.01 325.28-23.61 326.81-23.95 328.35-24.29 330.04-24.29L330.04-24.29Q332.58-24.29 334.65-23.57 336.73-22.85 338.19-21.35 339.66-19.85 340.45-17.57 341.24-15.28 341.24-12.16L341.24-12.16 341.24-3.66 346.61-3.66 346.61 0 331.84 0 331.84-3.66 335.99-3.66 335.99-10.08Q335.99-12.06 335.81-13.61 335.63-15.16 335.29-16.04L335.29-16.04Q334.85-17.16 334.17-17.94 333.5-18.73 332.66-19.21 331.82-19.7 330.82-19.92 329.82-20.14 328.69-20.14L328.69-20.14Q327.5-20.14 326.22-19.7 324.93-19.26 323.73-18.47 322.52-17.68 321.48-16.6 320.44-15.53 319.76-14.28L319.76-14.28 319.76-3.66 323.91-3.66 323.91 0 309.14 0ZM343-5.13L343-11.99Q343-14.14 342.67-15.98 342.34-17.82 341.68-19.3 341.02-20.78 340.06-21.85 339.09-22.92 337.82-23.56L337.82-23.56Q339.48-23.14 340.66-22.16 341.83-21.17 342.56-19.65 343.29-18.14 343.63-16.16 343.98-14.18 343.98-11.82L343.98-11.82 343.98-5.13 343-5.13ZM321.52-5.13L321.52-13.67Q322.13-14.75 322.97-15.63 323.81-16.5 324.8-17.13 325.79-17.75 326.87-18.09 327.96-18.43 329.04-18.43L329.04-18.43Q330.72-18.43 331.77-17.8 332.82-17.16 333.31-16.19L333.31-16.19Q332.55-16.75 331.54-17.14 330.52-17.53 328.99-17.53L328.99-17.53Q328.03-17.53 327.06-17.18 326.08-16.82 325.2-16.24 324.32-15.65 323.62-14.89 322.91-14.14 322.49-13.35L322.49-13.35 322.49-5.13 321.52-5.13ZM310.6-16.77L310.6-17.7 313.48-17.7 313.48-16.77 310.6-16.77ZM333.31 1.71L348.37 1.71 348.37-2.29 349.35-2.29 349.35 2.64 333.31 2.64 333.31 1.71ZM310.6 1.71L325.67 1.71 325.67-2.29 326.64-2.29 326.64 2.64 310.6 2.64 310.6 1.71ZM353.08-11.33L353.08-11.33Q353.08-13.92 354.03-16.26 354.98-18.6 356.89-20.39 358.79-22.17 361.63-23.23 364.46-24.29 368.19-24.29L368.19-24.29Q371.71-24.29 374.47-23.35 377.23-22.41 379.15-20.63 381.08-18.85 382.1-16.27 383.11-13.7 383.11-10.4L383.11-10.4 358.43-10.4Q358.65-8.64 359.56-7.28 360.48-5.91 361.89-4.97 363.31-4.03 365.1-3.54 366.9-3.05 368.85-3.05L368.85-3.05Q370.44-3.05 372.09-3.31 373.73-3.56 375.2-4 376.66-4.44 377.81-4.99 378.96-5.54 379.57-6.13L379.57-6.13 380.5-6.13 382.79-3.64Q380.28-1.49 376.68-0.38 373.08 0.73 368.73 0.73L368.73 0.73Q364.95 0.73 362.03-0.2 359.11-1.12 357.12-2.76 355.13-4.39 354.11-6.59 353.08-8.79 353.08-11.33ZM360.77-8.69L384.77-8.69Q384.82-9.06 384.84-9.48 384.87-9.91 384.87-10.4L384.87-10.4Q384.87-12.48 384.44-14.37 384.01-16.26 383.2-17.88 382.38-19.51 381.18-20.85 379.98-22.19 378.47-23.14L378.47-23.14Q380.08-22.51 381.44-21.4 382.79-20.29 383.77-18.7 384.75-17.11 385.29-15.04 385.84-12.96 385.84-10.4L385.84-10.4Q385.84-10.21 385.83-9.91 385.82-9.62 385.8-9.25 385.77-8.89 385.73-8.51 385.7-8.13 385.65-7.76L385.65-7.76 362.58-7.76Q363.04-6.98 364.29-6.16 365.53-5.35 367.51-4.79L367.51-4.79Q366.29-4.79 365.23-5.08 364.16-5.37 363.3-5.88 362.43-6.4 361.78-7.12 361.14-7.84 360.77-8.69L360.77-8.69ZM358.57-13.45L377.47-13.45Q377.08-15.14 376.26-16.46 375.44-17.77 374.25-18.66 373.05-19.56 371.51-20.03 369.98-20.51 368.14-20.51L368.14-20.51Q366.17-20.51 364.54-19.98 362.92-19.46 361.7-18.52 360.48-17.58 359.68-16.28 358.89-14.99 358.57-13.45L358.57-13.45ZM361.92-14.5L360.8-14.5Q361.7-16.5 363.64-17.65 365.58-18.8 368.14-18.8L368.14-18.8Q369.19-18.8 370.18-18.63 371.17-18.46 372.01-18.1 372.86-17.75 373.49-17.24 374.13-16.72 374.49-16.06L374.49-16.06Q373.1-16.99 371.51-17.43 369.93-17.87 368.1-17.87L368.1-17.87Q365.97-17.87 364.36-16.99 362.75-16.11 361.92-14.5L361.92-14.5ZM356.03-1.07L356.03-1.07Q358.4 0.61 361.54 1.54 364.68 2.47 368.73 2.47L368.73 2.47Q372.69 2.47 376.14 1.56 379.59 0.66 382.38-1.2L382.38-1.2 383.04-0.49Q379.89 1.64 376.41 2.51 372.93 3.39 369.12 3.39L369.12 3.39Q364.16 3.39 360.91 2.2 357.65 1 356.03-1.07ZM391.58 0L391.58-3.66 396.95-3.66 396.95-30.4 391.58-30.4 391.58-34.06 402.2-34.06 402.2-11.55 414.72-19.41 410.77-19.41 410.77-23.56 426.78-23.56 426.78-19.41 420.71-19.41 411.65-13.84 422.05-3.66 427.35-3.66 427.35 0 412.18 0 412.18-3.66 415.38-3.66 407.55-11.33 402.2-8.03 402.2-3.66 406.35-3.66 406.35 0 391.58 0ZM403.91-14.16L403.91-32.81 404.88-32.81 404.88-14.75 403.91-14.16ZM393.04-27.76L393.04-28.69 395.92-28.69 395.92-27.76 393.04-27.76ZM414.41-13.55L422-17.92 428.54-17.92 428.54-22.19 429.52-22.19 429.52-16.99 422.19-16.99 415.97-13.38 424.39-5.13 423.02-5.13 414.41-13.55ZM403.91-5.13L403.91-7.06 408.23-9.74 408.89-9.08 404.84-6.57 404.84-5.13 403.91-5.13ZM413.65 1.71L429.1 1.71 429.1-2.29 430.08-2.29 430.08 2.64 413.65 2.64 413.65 1.71ZM393.04 1.71L408.11 1.71 408.11-2.29 409.08-2.29 409.08 2.64 393.04 2.64 393.04 1.71ZM439.57-8.74L439.57-19.41 434.2-19.41 434.2-23.56 439.57-23.56 439.57-28.49 444.82-30.69 444.82-23.56 456.96-23.56 456.96-19.41 444.82-19.41 444.82-7.76Q444.82-5.93 445.97-5.04 447.12-4.15 449.1-4.15L449.1-4.15 455.98-4.15 455.98 0 449.1 0Q447.12 0 445.39-0.43 443.65-0.85 442.36-1.87 441.06-2.88 440.32-4.55 439.57-6.23 439.57-8.74L439.57-8.74ZM446.58-25.02L446.58-29.35 447.56-29.79 447.56-25.02 446.58-25.02ZM446.53-6.76L446.53-17.97 458.72-17.97 458.72-22.46 459.69-22.46 459.69-17.04 447.51-17.04 447.51-5.79Q446.68-6.01 446.53-6.76L446.53-6.76ZM435.67-16.77L435.67-17.7 438.6-17.7 438.6-16.77 435.67-16.77ZM439.43-2.1L439.43-2.1Q440.21-1 441.17-0.27 442.14 0.46 443.33 0.9 444.53 1.34 445.95 1.53 447.36 1.71 449.05 1.71L449.05 1.71 457.74 1.71 457.74-3.05 458.72-3.05 458.72 2.64 448.93 2.64Q447.05 2.64 445.51 2.39 443.97 2.15 442.79 1.6 441.6 1.05 440.76 0.13 439.92-0.78 439.43-2.1Z" opacity="1" transform="matrix(1,0,0,1,0,0)" fill="#2257bf" class="wordmark-text-0" data-fill-palette-color="primary" id="text-0"></path></svg></g></svg></g></svg></g></svg></g><g transform="matrix(1,0,0,1,164.84746264256958,0)"><svg viewBox="0 0 65.82507471486082 49.82507471486082" height="49.82507471486082" width="65.82507471486082"><g><svg xmlns="http://www.w3.org/2000/svg" xmlns:xlink="http://www.w3.org/1999/xlink" version="1.0" x="8" y="0" viewBox="10 10 80 80" enable-background="new 0 0 100 100" xml:space="preserve" height="49.82507471486082" width="49.82507471486082" class="icon-icon-0" data-fill-palette-color="accent" id="icon-0"><path fill="none" stroke="#2257bf" stroke-linecap="round" stroke-linejoin="round" stroke-miterlimit="10" d="M78.33 56.667l1.945 15.555L78.33 56.667z"></path><path fill="none" stroke="#2257bf" stroke-linecap="round" stroke-linejoin="round" stroke-miterlimit="10" d="M75.689 22.862v-3.157C75.021 14.236 70.37 10 64.722 10c-5.647 0-10.298 4.235-10.968 9.704v3.157c-1.433 0.509-2.461 1.859-2.461 3.461 0 3.145 1.596 5.689 3.582 5.778 1.828 5.631 5.549 9.496 9.847 9.496 4.297 0 8.016-3.864 9.846-9.496 1.986-0.089 3.583-2.633 3.583-5.778C78.15 24.721 77.118 23.371 75.689 22.862z"></path><path fill="none" stroke="#2257bf" stroke-linecap="round" stroke-linejoin="round" stroke-miterlimit="10" d="M63.359 24.58h-6.806v1.945c0 1.071 0.877 1.947 1.946 1.947h2.917c1.069 0 1.942-0.876 1.942-1.947V24.58z"></path><path fill="none" stroke="#2257bf" stroke-linecap="round" stroke-linejoin="round" stroke-miterlimit="10" d="M56.554 24.58l-2.8-1.718L56.554 24.58z"></path><path fill="none" stroke="#2257bf" stroke-linecap="round" stroke-linejoin="round" stroke-miterlimit="10" d="M66.081 24.58h6.806v1.945c0 1.071-0.875 1.947-1.944 1.947h-2.916c-1.071 0-1.945-0.876-1.945-1.947V24.58z"></path><path fill="none" stroke="#2257bf" stroke-linecap="round" stroke-linejoin="round" stroke-miterlimit="10" d="M72.889 24.58l2.801-1.718L72.889 24.58z"></path><path fill="none" stroke="#2257bf" stroke-linecap="round" stroke-linejoin="round" stroke-miterlimit="10" d="M63.359 24.58h2.722H63.359z"></path><path fill="none" stroke="#2257bf" stroke-linecap="round" stroke-linejoin="round" stroke-miterlimit="10" d="M62.292 35.745c1.342 1.341 3.519 1.341 4.86 0C65.811 37.086 63.634 37.086 62.292 35.745z"></path><path fill="none" stroke="#2257bf" stroke-linecap="round" stroke-linejoin="round" stroke-miterlimit="10" d="M75.689 22.862c-3.038 0-5.788-1.231-7.78-3.221l0 0c-2.147-2.147-4.961-3.222-7.777-3.222-3.522 0-6.378 2.885-6.378 6.443v-3.157C54.424 14.236 59.074 10 64.722 10c5.648 0 10.299 4.235 10.968 9.704V22.862z"></path><path fill="none" stroke="#2257bf" stroke-linecap="round" stroke-linejoin="round" stroke-miterlimit="10" d="M64.722 48.889c3.219 0 6.066-1.571 7.834-3.981-0.535-0.258-1.031-0.585-1.446-1.002-0.941-0.937-1.52-2.235-1.52-3.668v-0.429c-1.469 1.139-3.119 1.788-4.868 1.788-1.748 0-3.398-0.649-4.866-1.788v0.429c0 1.433-0.583 2.732-1.521 3.668-0.417 0.417-0.911 0.744-1.449 0.999C58.656 47.317 61.503 48.889 64.722 48.889z"></path><path fill="none" stroke="#2257bf" stroke-linecap="round" stroke-linejoin="round" stroke-miterlimit="10" d="M72.792 45.033c-0.084-0.034-0.155-0.089-0.236-0.125-1.768 2.41-4.615 3.981-7.834 3.981s-6.065-1.571-7.836-3.984c-0.078 0.04-0.151 0.092-0.236 0.128l-3.415 1.415c2.415 3.8 6.651 6.33 11.486 6.33 4.837 0 9.072-2.529 11.489-6.33L72.792 45.033z"></path><path fill="none" stroke="#2257bf" stroke-linecap="round" stroke-linejoin="round" stroke-miterlimit="10" d="M58.889 85.556H10v2.224C10 89.002 11.001 90 12.223 90h44.444c1.222 0 2.222-0.998 2.222-2.221V85.556z"></path><path fill="none" stroke="#2257bf" stroke-linecap="round" stroke-linejoin="round" stroke-miterlimit="10" d="M58.889 82.219c0 1.833-1.5 3.333-3.333 3.333H13.335c-1.834 0-3.335-1.5-3.335-3.333V57.774c0-1.833 1.5-3.335 3.335-3.335h42.221c1.833 0 3.333 1.502 3.333 3.335V82.219z"></path><path fill="none" stroke="#2257bf" stroke-linecap="round" stroke-linejoin="round" stroke-miterlimit="10" d="M55.556 54.439c1.833 0 3.333 1.502 3.333 3.335v14.447H90l-0.004-14.826c0-2.469-1-4.704-2.614-6.321L76.21 46.448c-2.417 3.8-6.652 6.33-11.489 6.33-4.835 0-9.071-2.529-11.486-6.33l-11.172 4.626c-0.938 0.938-1.66 2.089-2.107 3.365H55.556z"></path><circle fill="none" stroke="#2257bf" stroke-linecap="round" stroke-linejoin="round" stroke-miterlimit="10" cx="34.444" cy="70" r="3.3"></circle></svg></g></svg></g><g><rect width="164.84746264256958" height="2.929086098788317" y="45.8959886160725" x="230.6725373574304" fill="#2257bf" data-fill-palette-color="accent"></rect><rect width="164.84746264256958" height="2.929086098788317" y="45.8959886160725" x="0" fill="#2257bf" data-fill-palette-color="accent"></rect><rect width="164.84746264256958" height="2.929086098788317" y="40.037816418495865" x="230.6725373574304" fill="#2257bf" data-fill-palette-color="accent"></rect><rect width="164.84746264256958" height="2.929086098788317" y="40.037816418495865" x="0" fill="#2257bf" data-fill-palette-color="accent"></rect></g></svg></g><defs></defs></svg><rect width="395.52" height="89.97290789385868" fill="none" stroke="none" visibility="hidden"></rect></g></svg></g></svg>